<svg enable-background="new 0 0 500 500" version="1.1" viewBox="0 0 500 500" xmlns="http://www.w3.org/2000/svg" xmlns:xlink="http://www.w3.org/1999/xlink">
 <path d="m492.4 259.6c-0.5-7.7-0.3-15.4-0.1-23.1 0.2-5.6-1.7-8.5-7.8-8.7-8-0.2-14.2-1.4-15.8-12.3-1.5-10.7 3.1-13.5 11-18.4 12.8-7.9 0-18-1-27-1.1-9.7-5.2-18.7-14.5-14.1-13.6 4.8-14.5-3.8-18-8.9-3.9-5.5-4-10.5 2.1-14.4 10.4-6.6 8.5-13.2 0.7-20.7-3.3-3.1-5.6-7.3-8-11.3-4.7-7.8-10.3-11.4-18.3-4.3-7.1 6.3-11.8 1.8-16.7-3.2-4.5-4.6-9.1-8.9-3.3-15.5 8-9.3 4.2-15.2-5.3-20.1-4.5-2.3-8.7-5.5-12.5-9-6.7-6.1-12.6-6.5-17.4 1.8-5.5 9.4-11.8 4.4-18.3 1.7-6.7-2.8-10.2-6.8-6.9-14.2 4.2-9.4-0.8-13.1-9-15.1-5.5-1.4-11-2.9-16.2-5.1-9.2-3.9-15.7-2.9-18.3 8-2.1 8.9-8.5 6.1-14.7 5.6-7.2-0.6-12.1-2.6-11.8-10.7 0.5-10.7-5.4-13-14.6-12.3-6.1 0.5-12.4 0.5-18.5 0-8.6-0.8-12.7 2.8-12.2 11.2 0.6 8.8-4.1 11.4-11.9 12.3-7.1 0.8-13.4 1.6-15.7-7.2-2.7-10.5-9.1-10.6-17.5-6.8-5.1 2.3-10.7 3.6-16.2 5-8.1 2.2-13.2 5.6-8.9 15.1 3.5 7.8-0.4 11.9-7.5 15.5-6.6 3.3-12 6-16.9-1.9-6-9.6-12.4-7.9-19.6-0.9-3.6 3.5-7.9 6.7-12.4 9.1-8.8 4.8-10.1 11-4.3 18.6 5.6 7.2 1.7 11.8-3.3 16.9-5.4 5.4-10.8 7.8-17.3 2.3-6.7-5.8-11.4-4-15.6 3.2-2.8 4.9-6.1 9.7-10 13.6-7.6 7.6-9.1 13.9 1.5 20.2 8.4 5.1 3.3 11.2 0.7 17.3-2.9 6.6-6.5 10.4-14.1 6.8-9-4.3-13.1-0.2-15 8.5-1.3 6-3 12-5.5 17.6-3.7 8.3-2.5 13.8 6.8 16.4 8.8 2.5 7.8 8.9 7.1 16-0.7 7.4-3.2 11.9-10.8 11.8-11.2-0.1-13.9 5.9-12.7 15.7 0.5 4.1 0.5 8.3 0 12.3-1.3 10.4 1.4 17.2 13.3 17 8.2-0.1 10.1 5.1 10.9 11.9 0.8 6.6 0.8 12.8-7 14.9-10.3 2.8-10.9 9.1-7.6 17.6 2.2 5.7 4.4 11.6 5.8 17.6 1.9 8.2 5.7 11.1 14.1 7.6 8.5-3.6 12.7 1 16.7 8.5 3.9 7.4 3.6 12.1-3.4 16.6-6.8 4.3-8.4 9.5-2 16 3.6 3.6 6.4 8.1 9.1 12.4 5.4 8.5 10.7 15 21.6 6.3 7.5-6.1 11.6 1.7 16.6 5.7 6.3 4.9 6.2 9.7 1.4 15.4-6.1 7.3-3.9 12.7 3.8 17.2 4.9 2.8 9.7 6 13.9 9.7 6.8 6.1 12.6 8.3 18.5-1.2 4.5-7.3 10.4-6.1 17.2-2.3 6.3 3.6 11.6 6.5 8 15.2-4 9.7 0.8 14.1 10.1 15.8 5 0.9 9.9 2.8 14.6 4.7 8.3 3.3 15 3.7 17.7-7.1 2.1-8.6 7.6-9.1 15.3-7.5 7.2 1.5 13.4 2.8 12.3 12-1.1 9.4 3.8 11.4 11.8 10.8 5.1-0.4 10.3-0.2 15.4 0.1 9.8 0.5 18.5 1 17.6-13.6-0.6-9.6 8.9-7.7 14.8-9.7 6.1-2 10-0.7 11.7 5.7 3 11.9 10.6 11.8 20 7.9 5.2-2.1 10.6-4 16.1-5.2 7.5-1.7 10.5-5.3 7.6-13-3-7.8-0.6-12.7 7.3-17.1 8.4-4.6 13.4-2.8 18.2 4 4.7 6.6 9.3 6.4 15.1 1.1 4.9-4.5 10.2-8.9 16-11.9 8.9-4.5 9.2-10.2 3.7-17-5.9-7.2-2.3-11.6 2.9-16.9s9.7-9.2 16.7-3.1c8.1 7 13.3 3.7 17.8-4.6 2.7-4.9 6.2-9.4 9.9-13.7 5.4-6.4 7.4-12-1.1-17.4-7.2-4.5-6.7-10.4-3-17.2 3.5-6.3 6.8-11.4 15.4-8 9.8 3.9 14-1.3 16-10.2 1.2-5.5 2.8-11 5-16.2 3.5-8.2 2.3-13.6-7.1-16.2-6.7-1.8-10.6-5.4-8.1-13.6 2.1-6.8 1.5-14.7 12.2-14 8.5 0.5 12.3-3.7 11.7-12.3" clip-path="url(#SVGID_00000038411754176789784940000013681691356459990146_)" fill="currentColor"/>
</svg>
