<svg width="365.2pt" height="365.34pt" preserveAspectRatio="xMidYMid" version="1.0" viewBox="0 0 365.2 365.34" xmlns="http://www.w3.org/2000/svg" fill="currentColor" stroke="currentColor">
 <g transform="matrix(.1 0 0 -.1 -228.35 519.71)">
  <path d="m3783.5 5179.5-102-19-6-282-92-33-92-32-87 109-87 110-36-21c-20-12-61-35-91-52s-56-32-58-33 15-59 37-129c23-70 41-133 40-139 0-6-33-37-74-68l-73-57-112 70c-61 38-115 70-119 72-5 1-40-34-79-77l-70-79 166-224-54-82c-46-69-58-80-77-76-12 3-71 16-131 30s-110 24-112 22c-5-4-84-189-84-194 0-2 52-38 116-79 65-43 114-81 111-88-3-6-12-47-22-91s-19-81-20-83c-2-3-240-32-262-32-14 0-21-36-26-142l-4-76 61-17c34-9 93-25 133-37 81-23 76-17 88-140l6-67-123-62c-68-34-125-63-127-65-5-5 40-198 48-205 3-3 67 0 141 6 74 7 138 11 141 9s22-41 43-87l37-84-58-54c-31-30-80-75-107-100l-49-46 59-86c32-48 64-87 71-87s65 23 130 50c65 28 122 50 128 50 5 0 38-31 71-68l61-68-70-128c-38-71-65-131-60-135 5-3 44-32 87-64l78-59 32 29c17 15 63 58 102 95 40 38 78 68 85 68 8 0 47-18 87-40 83-47 79-32 53-210-11-69-16-128-12-131 3-4 44-19 91-34s90-30 96-32c7-2 41 53 79 124 36 70 68 129 70 131s44-2 94-8l90-13 11-51c5-28 18-94 28-146l17-95 107-3c95-2 107-1 112 15 3 10 15 74 26 142 12 69 23 128 26 132 2 4 37 12 77 19 39 6 79 14 88 16 13 4 34-28 90-131 40-74 76-135 79-135s48 15 100 34c77 27 95 38 93 53-2 10-12 78-23 152-11 73-19 135-18 136 2 1 39 21 82 44 92 49 68 58 215-76 50-46 95-83 100-83 10 0 154 118 159 130 1 4-13 35-32 68-19 34-52 94-72 133l-37 70 67 68 68 68 141-58 141-57 53 79c29 43 53 82 53 87s-47 56-105 113c-118 116-114 103-65 213l31 69 107-7c59-4 128-9 153-13l46-5 22 88c12 49 24 96 26 105 4 11-27 29-127 73-73 32-137 62-142 66-5 5-3 49 4 104l13 96 41 11c22 7 86 24 141 39l100 27-3 99c-2 55-7 102-10 106-4 3-72 12-152 20l-145 13-23 90c-12 50-20 95-18 102 3 6 53 45 113 85 59 40 112 76 117 80 8 5-54 167-73 190-3 4-71-9-150-28s-145-33-146-32c-22 30-105 159-105 164 0 3 38 57 85 118 47 62 85 116 85 121s-32 42-71 81l-71 72-112-72c-61-40-116-75-123-79-8-5-106 61-162 109-2 2 15 65 38 139 24 74 40 139 36 145-7 11-159 90-174 90-5 0-46-49-92-110-95-124-76-118-209-69l-75 27-3 141-3 140-32 5c-91 15-163 23-168 20-4-2-26-60-50-129l-44-125-105 2-105 3-45 122c-25 67-48 124-50 126-3 2-51-6-107-16zm519-782c429-89 743-398 834-818 21-98 21-299-1-402-73-347-301-631-614-766-148-63-245-83-411-83s-263 20-411 83c-474 204-726 737-588 1242 31 115 118 282 196 379 153 188 393 330 627 369 87 15 289 12 368-4z"/>
  <path d="m3965.5 4277.5c-267-43-515-217-649-458-78-140-124-347-112-502 32-403 296-722 683-827 113-30 335-30 448 0 89 25 221 85 291 132 277 191 437 537 395 857-29 220-115 390-276 548-99 97-211 166-342 211-157 53-283 64-438 39zm288-525c276-104 347-485 126-684-238-214-621-84-679 232-36 201 107 421 307 472 59 14 181 5 246-20z"/>
 </g>
</svg>
