<svg width="129.01mm" height="128.68mm" version="1.1" viewBox="0 0 129.01 128.68" xmlns="http://www.w3.org/2000/svg" fill="currentColor" stroke="currentColor">
 <g transform="translate(-48.77 -19.21)">
  <path d="m101.55 19.758-3.175 0.59972-0.10583 4.9742-0.10584 4.9742-3.1397 1.0936c-1.7286 0.59972-3.2808 1.0936-3.4925 1.0936-0.17639 0-1.6228-1.6581-3.2103-3.7042-1.5875-2.0814-2.9986-3.7042-3.1397-3.6336-1.5875 0.67028-6.3853 3.6689-6.3853 3.9864 0 0.21167 0.635 2.1872 1.4111 4.3744 0.77612 2.1519 1.4111 4.1628 1.4111 4.4097 0 0.45861-4.8683 4.445-5.3975 4.445-0.10584 0-1.9756-1.1289-4.1275-2.4694-2.1519-1.3758-3.9511-2.4694-4.0217-2.4694-0.0706 0-1.27 1.27-2.6811 2.8222l-2.54 2.8222 1.3758 1.6581c0.77611 0.9525 2.1519 2.6811 3.0692 3.8806l1.658 2.2225-1.8344 2.7164c-1.0231 1.5169-1.8697 2.8222-1.9403 2.8928-0.10583 0.10583-7.4436-1.4464-8.9958-1.9403-0.45862-0.10583-0.91723 0.635-2.0461 3.4572-0.77611 1.9756-1.3053 3.6689-1.1642 3.7747 0.17639 0.10583 1.9756 1.3053 4.0569 2.6458 4.2333 2.7164 3.9511 1.9756 2.7517 6.9144l-0.56444 2.2931-9.6661 0.98778-0.17639 1.4464c-0.10583 0.77611-0.28222 2.5047-0.38805 3.7747l-0.21167 2.3636 1.1642 0.35278c0.635 0.21167 2.7517 0.81139 4.6919 1.3406 1.9403 0.52917 3.6336 1.0583 3.7394 1.1642 0.14111 0.10583 0.3175 1.6228 0.45861 3.3867l0.21167 3.175-3.7747 1.7286c-2.1167 0.9525-4.1628 1.9403-4.5508 2.1872l-0.77611 0.45861 0.98778 3.4572 0.9525 3.4572h1.7286c0.9525-0.0353 3.2456-0.10584 5.08-0.17639l3.3514-0.14111 1.3053 2.9633 1.27 2.9986-3.7042 3.5278-3.7394 3.5631 2.0461 2.9633c1.1289 1.6581 2.1167 3.0692 2.1872 3.1397 0.0705 0.0706 2.1872-0.74083 4.7625-1.8344l4.6567-2.0108 0.84667 0.81139c0.45861 0.42334 1.4817 1.517 2.2225 2.4342l1.4111 1.6581-2.293 4.5861-2.3283 4.5861 2.9986 2.3283 2.9986 2.3636 3.8806-3.563 3.8453-3.5278 2.8222 1.5875c1.5875 0.91722 2.8575 1.7639 2.8575 1.9756 0 0.17638-0.3175 2.5047-0.74083 5.1153-0.38806 2.6458-0.59972 4.9036-0.42333 5.0447 0.14111 0.14111 1.7639 0.74083 3.563 1.3053l3.2456 1.0583 1.7992-3.2103c1.0231-1.7639 2.1872-3.8453 2.6458-4.6567l0.81139-1.4111 3.1044 0.52916c1.6933 0.28223 3.1397 0.52917 3.2103 0.56445 0.0353 0.0705 0.52917 2.3636 1.0936 5.1506l0.98778 5.08 3.7394 0.10584 3.7042 0.10583 0.38806-1.8697c0.21166-1.0231 0.67027-3.3514 1.023-5.1858 0.70556-3.81 0.56445-3.6689 4.9742-4.0922l2.3283-0.24694 2.3989 4.445c1.3406 2.4342 2.54 4.5156 2.6811 4.5861 0.14111 0.10583 1.7992-0.38806 3.6689-1.0936 3.0339-1.0936 3.3867-1.3406 3.2456-2.0108-0.0706-0.38805-0.38806-2.3283-0.70556-4.2686-0.28222-1.9403-0.59972-3.9511-0.70555-4.4803-0.17639-1.0936-0.0706-1.1642 3.2103-2.9633l2.5047-1.3406 3.3161 2.9633c1.8344 1.6228 3.6689 3.2808 4.0922 3.6336 0.74083 0.67028 0.77611 0.635 3.5278-1.5169 1.5169-1.2347 2.7869-2.3283 2.8575-2.4694 0.0353-0.10584-1.0231-2.2931-2.3989-4.7625-1.3758-2.5047-2.4342-4.6567-2.3989-4.7978 0.0706-0.10584 1.0936-1.27 2.2931-2.5753l2.1872-2.3989 3.81 1.6933c2.0814 0.91723 4.3392 1.8697 4.9389 2.1167l1.1642 0.49389 1.9403-2.8928c1.0583-1.6228 1.9403-3.1044 1.9403-3.3514 0-0.21166-0.52917-0.81139-1.1289-1.3406-0.635-0.52917-2.3989-2.152-3.8806-3.5631l-2.7164-2.5753 1.4111-3.0339 1.4464-3.0692 5.3622 0.24694 5.3975 0.28222 0.88194-3.5631 0.88195-3.5278-4.7978-2.1167-4.7978-2.0814 0.10584-3.3161c0.0706-1.8344 0.17638-3.3514 0.24694-3.4219 0.0706-0.07056 2.3283-0.77611 5.08-1.6228 2.7164-0.81139 5.0447-1.5522 5.1506-1.6581 0.17638-0.21167-0.42334-6.7028-0.67028-6.9497-0.0706-0.07055-2.4342-0.35278-5.1858-0.67028-2.7869-0.28222-5.1153-0.59972-5.1858-0.635-0.0705-0.07055-0.45861-1.5522-0.91722-3.3161-0.91722-3.7747-1.3406-3.0692 4.0922-6.7028l3.7747-2.5047-0.56444-1.3053c-1.4817-3.5983-2.6106-5.4328-3.2103-5.2564-0.3175 0.10583-2.3283 0.59972-4.4803 1.0936-2.1167 0.49389-4.1275 0.98778-4.4097 1.0583-0.35278 0.10583-1.1289-0.77611-2.3989-2.8222l-1.8697-2.9633 2.9986-4.0922c1.6933-2.2225 3.0339-4.1628 3.0339-4.3039s-1.1289-1.4111-2.5047-2.7869l-2.5047-2.54-4.2333 2.7869-4.2686 2.7517-1.4464-1.0231c-0.77611-0.59972-2.0461-1.5875-2.8222-2.2225l-1.3406-1.1289 1.4464-4.6214c0.81139-2.5047 1.4464-4.7272 1.4464-4.9389 0-0.49389-6.1736-3.4572-6.6322-3.175-0.21167 0.10583-1.6581 1.905-3.2456 3.9158l-2.8222 3.7042-3.3867-1.2347c-1.8697-0.67028-3.4572-1.2347-3.5278-1.2347-0.0705 0-0.17638-2.2578-0.21166-5.0447l-0.10584-5.0094-3.4925-0.42333c-1.9403-0.24694-3.563-0.38806-3.6689-0.3175-0.0706 0.10583-0.81139 2.1167-1.6581 4.5156l-1.5169 4.3392-3.6336 0.10583-3.6689 0.10583-1.6228-4.5156c-0.98778-2.7164-1.8344-4.5508-2.1167-4.5508-0.28222-0.03528-1.905 0.21167-3.6689 0.52917zm21.096 28.222c6.1031 1.5875 11.395 4.5861 16.228 9.1722 1.517 1.4464 2.9281 2.9281 3.0692 3.2456 0.28222 0.49389-0.74083 1.1994-6.597 4.5508l-6.9144 3.9864-2.152-1.1642c-1.1642-0.67028-3.4219-1.9403-4.9742-2.8222l-2.8222-1.6228-0.10584-8.0081-0.0705-8.0081h0.81139c0.45861 0 2.0461 0.3175 3.5278 0.67028zm-13.935 7.4789-0.10583 7.7964-4.9036 2.7869c-2.6811 1.5522-5.08 2.7869-5.327 2.7164-1.023-0.24694-13.229-7.5494-13.229-7.9022 0-0.81139 4.9389-5.6797 7.5847-7.5142 4.6214-3.2103 10.83-5.6092 14.57-5.6444l1.4817-0.03528zm-21.766 17.498 6.6675 3.81v12.347l-4.3039 2.54c-2.3989 1.3758-5.5739 3.2103-7.0556 4.1275l-2.7164 1.5875-0.88195-2.7164c-2.3989-7.62-2.3283-15.064 0.17639-23.213 0.38806-1.2347 0.88195-2.2578 1.0936-2.2578 0.21167 0 3.3514 1.6933 7.0203 3.7747zm60.96-1.8344c2.0108 5.3622 2.6811 12.912 1.6228 18.486-0.70555 3.6336-1.8697 7.4436-2.293 7.4436-0.17639 0-3.3514-1.7639-7.0556-3.9158l-6.7028-3.9158v-12.488l6.4558-3.7394c3.5278-2.0814 6.5969-3.7747 6.8439-3.81 0.21166 0 0.74083 0.88194 1.1289 1.9403zm-31.009 2.54c5.6092 1.7992 8.5372 8.7489 5.9619 14.217-2.3283 4.9389-7.4083 7.3025-12.488 5.8208-1.6228-0.45861-2.4694-0.98778-4.057-2.5753-2.3636-2.3636-3.175-4.3744-3.175-7.8317 0-7.0908 6.8086-11.889 13.758-9.6308zm-13.511 27.199 5.2211 3.1044 0.10583 8.0433 0.0706 8.0433-1.4817-0.24695c-4.5156-0.70555-10.301-3.0692-14.57-5.9267-2.152-1.4464-8.6431-7.7258-8.6431-8.3256 0-0.17639 0.28222-0.42333 0.635-0.52917 0.3175-0.10583 3.3161-1.7992 6.5969-3.7394 3.3161-1.9403 6.1736-3.5278 6.4206-3.5278 0.21167 0 2.7517 1.4111 5.6445 3.1044zm32.844 0.77612c3.5278 2.0108 6.4206 3.8453 6.4206 4.0569 0 0.59972-4.8683 5.5033-7.3025 7.3378-4.198 3.2103-10.76 6.103-15.381 6.7733l-1.658 0.24695v-16.122l5.2211-3.0692c2.8575-1.6933 5.4328-3.0339 5.715-2.9986 0.3175 0.03528 3.4572 1.7286 6.985 3.7747z" stroke-width=".035278"/>
 </g>
</svg>
