<svg width="128.8mm" height="129.12mm" version="1.1" viewBox="0 0 128.8 129.12" xmlns="http://www.w3.org/2000/svg" fill="currentColor" stroke="currentColor">
 <g transform="translate(-127.26 -1.3229)">
  <path d="m196.23 5.8385-1.5875 4.4803-7.4083 0.21167-1.5875-4.445c-1.0936-2.9986-1.7639-4.4097-2.1167-4.4097-0.28222 0.035278-1.9403 0.3175-3.7042 0.635l-3.175 0.59972-0.10583 4.9742-0.10584 5.0094-3.2103 1.0936c-2.0814 0.67028-3.3867 0.9525-3.6336 0.74083-0.21166-0.17639-1.5875-1.8344-3.0339-3.7042-1.7639-2.2931-2.787-3.3161-3.2103-3.2103-0.3175 0.070556-1.8344 0.88194-3.3867 1.7992l-2.7869 1.6581 1.3406 4.1275c0.74084 2.2578 1.4111 4.3392 1.517 4.6214 0.14111 0.35278-0.635 1.1994-2.5047 2.6458-1.4817 1.1642-2.7869 2.0814-2.928 2.0461-0.14111-0.03528-2.0108-1.1289-4.2333-2.4694l-3.9864-2.3636-1.9403 2.0814c-3.3867 3.7042-3.3867 3.1397-0.10584 7.4083 1.5875 2.0461 2.8575 3.7747 2.8575 3.8453 0 0.21167-3.1397 5.2564-3.4572 5.5739-0.17639 0.17639-2.3989-0.14111-5.0094-0.77611-2.5753-0.59972-4.7272-1.0231-4.7978-0.98778-0.38806 0.45861-2.6106 6.4558-2.5047 6.8086 0.14111 0.3175 3.4219 2.6458 7.62 5.3975 0.10583 0.03528-0.17639 1.5875-0.635 3.3867-0.91722 3.81-0.24695 3.4219-6.8086 4.1275l-3.7394 0.42333-0.28222 3.3867c-0.17639 1.8697-0.3175 3.5278-0.3175 3.7394 0 0.17639 1.9756 0.91722 4.4097 1.5875 2.4342 0.70556 4.6214 1.3406 4.9036 1.4464 0.35278 0.10583 0.52917 1.0936 0.635 3.4925l0.17639 3.3514-4.3039 1.905c-2.3283 1.0583-4.3392 2.0461-4.445 2.1872-0.14111 0.24694 1.517 7.0203 1.7992 7.3025 0.0705 0.07055 2.293-0.03528 4.9742-0.24694 2.6811-0.21167 4.9036-0.35278 4.9389-0.28222 0.0705 0.03528 0.74083 1.4464 1.4817 3.0692l1.3758 2.9986-7.4083 7.0556 2.0461 3.1044c1.1289 1.6933 2.2225 3.0692 2.4342 3.0692s2.3636-0.88194 4.7625-1.9403l4.4097-1.9403 2.1872 2.3636c1.2347 1.3406 2.2225 2.5047 2.2578 2.6106 0 0.10584-1.023 2.1167-2.293 4.4803-1.27 2.3989-2.2931 4.445-2.2931 4.6214 0 0.24695 4.2333 3.5983 5.5739 4.4097 0.3175 0.17639 1.5875-0.77611 3.8806-2.8575 1.8697-1.7286 3.6336-3.2808 3.8806-3.4219 0.38806-0.24695 5.4681 2.293 5.8561 2.8928 0.0706 0.14111-0.17639 2.293-0.52916 4.833-0.38806 2.54-0.635 4.7978-0.59973 5.08 0.10584 0.38806 5.9267 2.8575 6.8086 2.8575 0.21166 0 1.27-1.7992 2.3989-3.9864 2.9986-5.7856 2.4342-5.3269 6.2089-4.6567 2.9633 0.56444 3.175 0.67027 3.3514 1.5169 0.10584 0.52917 0.52917 2.8222 0.9525 5.1153l0.77611 4.1275h7.5142l0.9525-5.0094c0.49389-2.7164 1.0936-5.08 1.3053-5.2211 0.42333-0.28222 5.9972-1.1642 6.1736-0.98777 0.0706 0.0705 1.1994 2.0108 2.4694 4.3392 1.3053 2.3283 2.5047 4.3744 2.6458 4.5508 0.28222 0.28222 5.6092-1.2347 6.7028-1.905 0.35278-0.21167 0.28222-1.3053-0.35278-5.2211-0.42333-2.7517-0.70556-5.1858-0.59972-5.468 0.17639-0.49389 4.7978-3.0692 5.5386-3.0692 0.21167 0 2.0814 1.517 4.1275 3.3514 2.0814 1.8344 3.8806 3.3514 4.0569 3.3514 0.14112 0 1.5522-0.98778 3.0692-2.1872l2.8222-2.1872-0.84666-1.4111c-0.45861-0.81138-1.6228-2.928-2.6106-4.7625l-1.7286-3.3514 2.1167-2.3989c1.1994-1.3053 2.3636-2.3989 2.6106-2.3989 0.28222 0 2.5753 0.88194 5.08 1.9756 2.54 1.0936 4.692 1.9403 4.7625 1.8697 0.42334-0.42334 3.7042-5.6797 3.7042-5.9267 0-0.17639-1.6581-1.905-3.7042-3.8806-2.0461-1.9403-3.7042-3.6689-3.7042-3.81 0-0.17639 0.56444-1.5875 1.3053-3.2103l1.3053-2.9281 2.9986 0.21167c1.6581 0.10583 4.0922 0.28222 5.3622 0.38806l2.3636 0.21167 0.77611-3.3867c0.42333-1.8697 0.70555-3.5983 0.59972-3.8453-0.10583-0.24694-2.1872-1.3053-4.6567-2.3636-2.4694-1.0583-4.5508-2.1167-4.6214-2.2931-0.0706-0.21167 0-1.7639 0.14112-3.5278l0.24694-3.1397 2.6458-0.77611c1.4464-0.45861 3.7747-1.1289 5.1153-1.5169l2.5047-0.74083-0.38805-3.4925c-0.17639-1.9403-0.42334-3.5983-0.52917-3.6689-0.10583-0.10583-2.3989-0.38806-5.1153-0.59972-2.7164-0.24694-5.0094-0.49389-5.0447-0.56444-0.0705-0.03528-0.52917-1.5522-0.98778-3.3867-0.81139-3.1044-0.81139-3.3161-0.21166-3.7394 0.3175-0.24694 2.2578-1.5875 4.2333-2.9281 4.1628-2.8575 4.0217-2.3989 2.0461-6.7381l-1.27-2.6811-4.6567 1.1994c-2.5753 0.67028-4.9389 1.1994-5.2211 1.1994-0.45861 0-3.8806-5.1506-3.8806-5.8208 0-0.17639 1.3406-2.0814 2.9986-4.2686 1.658-2.2225 2.9986-4.1628 2.9986-4.3392 0-0.59972-5.0094-4.9742-5.4328-4.7272-0.21167 0.10583-2.1519 1.3758-4.3392 2.7869l-3.9511 2.5753-2.6811-2.1519c-1.4464-1.1642-2.6458-2.2931-2.6458-2.5047 0-0.21167 0.635-2.4342 1.4464-4.9389 0.77611-2.5047 1.3758-4.5861 1.3053-4.6567-0.0706-0.03528-1.5522-0.81139-3.3161-1.6933l-3.2103-1.6228-2.6106 3.3867c-1.4464 1.8344-2.7869 3.5631-3.0339 3.8806-0.35278 0.45861-0.84667 0.38806-3.9511-0.635l-3.5631-1.1642v-5.0447c0-2.7869-0.10583-5.0447-0.24694-5.0447-0.28222 0-3.81-0.52917-5.9267-0.88194l-1.0583-0.17639zm4.0569 24.377c22.19 5.5386 33.937 29.422 24.871 50.553-3.4925 8.1492-10.619 15.416-18.591 19.015-7.8317 3.5278-17.427 4.0569-25.682 1.4817-17.604-5.5033-28.504-23.918-25.188-42.439 0.84667-4.7272 3.5278-10.795 6.4206-14.676 2.0461-2.6811 6.5264-6.985 9.0664-8.6431 4.2686-2.8222 9.3133-4.8683 14.217-5.8208 3.5278-0.67028 11.183-0.38806 14.887 0.52917z" stroke-width=".035278"/>
 </g>
</svg>
