<svg width="128.87mm" height="129.12mm" version="1.1" viewBox="0 0 128.87 129.12" xmlns="http://www.w3.org/2000/svg" fill="currentColor" stroke="currentColor">
 <g transform="translate(-40.481 -83.873)">
  <path d="m109.34 88.459-1.5522 4.6214-3.6689-0.10583-3.7042-0.10583-1.5875-4.3744-1.5875-4.3392-1.6228 0.21167c-0.88194 0.10583-2.5753 0.38806-3.7747 0.59972l-2.1872 0.38806-0.10583 4.9389-0.10583 4.9742-3.2456 1.1642-3.2103 1.1642-3.0692-3.8453c-1.6933-2.1519-3.175-3.81-3.3161-3.7394-4.2686 2.3989-6.0325 3.5631-6.0325 3.9864 0 0.3175 0.56444 2.2931 1.2347 4.3744 0.67028 2.1167 1.2347 4.0569 1.2347 4.3392 0 0.49389-4.7625 4.445-5.3622 4.445-0.17639 0-2.0814-1.1289-4.2333-2.5047-2.1519-1.3758-4.0217-2.3636-4.1275-2.1872-0.14111 0.14111-1.3406 1.4817-2.6458 2.9986-1.3053 1.4817-2.2225 2.7869-2.0461 2.8928 0.17639 0.10583 1.5522 1.7992 3.0692 3.7394l2.6811 3.5278-1.8697 2.9986c-1.27 2.0461-2.0461 2.9281-2.3989 2.8222-0.56444-0.17639-8.7136-1.9403-8.9606-1.9403-0.07055 0-0.52917 0.98778-1.0231 2.1872-0.49389 1.2347-1.1289 2.7869-1.4464 3.5278l-0.56444 1.27 3.9864 2.5753c2.1519 1.3758 4.0217 2.5753 4.0922 2.6458 0.17639 0.14111-1.0583 5.9619-1.3406 6.4206-0.14111 0.21167-2.3636 0.635-4.9742 0.98778-2.6106 0.3175-4.7978 0.635-4.8683 0.67028-0.07056 0.0353-0.21167 1.7639-0.3175 3.81l-0.21167 3.7042 1.5522 0.42334c4.0922 1.0583 7.8317 2.1167 7.9022 2.1872 0.03528 0.0706 0.17639 1.5875 0.3175 3.3867l0.24694 3.2808-3.2808 1.517c-1.7992 0.84666-3.8806 1.7992-4.5861 2.0814l-1.3053 0.56445 0.45861 1.6933c0.28222 0.91722 0.77611 2.6106 1.0936 3.7747l0.56444 2.0814 2.7164-0.24694c1.4817-0.10583 3.7394-0.3175 5.0094-0.42333l2.2931-0.21167 1.3758 3.1044 1.4111 3.0692-3.7747 3.4925-3.7747 3.5278 2.1519 3.1397c1.1642 1.7286 2.1872 3.1397 2.2931 3.1397s2.1872-0.88194 4.5861-1.9403c2.4342-1.0583 4.5156-1.905 4.6567-1.905 0.14111 0.0353 1.27 1.1289 2.5047 2.4694 1.6581 1.7639 2.1519 2.54 1.905 2.8575-0.21167 0.24694-1.3406 2.2931-2.54 4.5861l-2.1519 4.0922 2.9986 2.3636c3.4925 2.7164 2.6811 2.928 7.7611-1.7639l3.0692-2.787 2.9986 1.517c2.5753 1.3053 2.9633 1.658 2.7869 2.293-0.56444 2.3283-1.3406 9.4544-1.0583 9.7014 0.17639 0.17639 1.7639 0.77611 3.5631 1.3758l3.2456 1.0583 4.7978-9.1722 2.0814 0.24694c1.1289 0.10583 2.6458 0.42333 3.3514 0.635l1.27 0.42333 1.0231 5.0094 1.0231 5.0447h7.5494l0.77612-4.8683c0.45861-2.6458 0.84666-5.0094 0.91722-5.2211 0.10583-0.3175 4.833-1.1994 6.4206-1.1994 0.21167 0 1.4817 2.0108 2.8222 4.445 1.3053 2.4342 2.5753 4.5156 2.7869 4.6214 0.45861 0.17639 6.4206-1.9403 6.7028-2.3989 0.10583-0.17639-0.14111-2.5753-0.56445-5.3269-0.45861-2.9633-0.635-5.08-0.42333-5.2917 0.17639-0.17639 1.4817-0.91722 2.8928-1.6581l2.5753-1.3758 3.9158 3.4925c2.152 1.905 4.0217 3.4925 4.1275 3.4925 0.17639 0 5.3622-3.8806 5.8914-4.3744 0.0353-0.0706-1.0936-2.2225-2.54-4.8331l-2.6458-4.6919 1.8697-2.1167c1.023-1.1642 2.1167-2.2578 2.3989-2.4694 0.42333-0.24694 1.7992 0.14112 5.468 1.6228 2.6811 1.0936 4.9389 1.9403 5.08 1.8697 0.10584-0.10583 1.0231-1.4817 2.0461-3.1397l1.8344-2.9986-2.3989-2.2578c-1.3053-1.2347-3.1044-2.8575-3.9511-3.6336l-1.5522-1.4111 1.4464-3.0692 1.4464-3.0692 5.3975 0.10583 5.3975 0.0706 0.77611-2.8222c0.42333-1.5522 0.77611-3.0692 0.77611-3.3867 0.0353-0.38806-1.3758-1.1994-4.6214-2.6811l-4.692-2.0814-0.21166-7.1261 1.8697-0.52916c1.0231-0.3175 3.4219-0.98778 5.3269-1.4817 3.2103-0.91722 3.422-1.023 3.422-1.905-0.0353-1.0583-0.67028-6.103-0.81139-6.2442-0.0353-0.0353-2.3989-0.28222-5.2211-0.52916l-5.1858-0.42334-0.74084-3.0339c-0.38805-1.6933-0.74083-3.2808-0.74083-3.563s1.658-1.6228 3.6336-2.9281c1.9756-1.3406 3.8806-2.6106 4.2333-2.8575 0.56445-0.42333 0.49389-0.67027-0.88194-3.7042-0.98778-2.1872-1.6228-3.2103-2.0461-3.2103-0.3175 0-2.1872 0.38805-4.0922 0.84666-6.2442 1.517-5.3975 1.6933-7.4083-1.4464-0.9525-1.4817-1.7639-2.8575-1.8344-2.9986-0.0706-0.14111 1.3406-2.1872 3.1397-4.5156l3.2456-4.2686-2.5753-2.3636c-1.4111-1.3053-2.7164-2.3989-2.8575-2.4694-0.14111-0.0706-1.9403 1.0231-4.0217 2.3989-2.0461 1.3758-3.9511 2.5753-4.2333 2.6811-0.28223 0.14111-1.5875-0.70555-3.175-1.9756-1.4464-1.2347-2.6458-2.2225-2.6458-2.2578 0 0 0.70556-2.2225 1.5522-4.9036l1.5522-4.8683-2.7164-1.3406c-4.2333-2.1519-3.7394-2.2578-6.7381 1.6228-1.4464 1.8697-2.7869 3.5983-2.9986 3.8806-0.28222 0.38806-0.98778 0.24694-3.8806-0.70556l-3.5278-1.1994-0.10584-4.9742c-0.0353-2.7517-0.21166-5.0094-0.35277-5.0094-0.24695 0-3.9511-0.56444-5.9267-0.88194l-1.0936-0.17639zm0.0353 13.053c3.0339 0.49388 4.1628 0.9525 5.5739 2.2578 1.9403 1.7992 2.2578 4.9389 0.9525 9.4897-1.6228 5.5386-6.5969 10.83-10.231 10.83-3.1397 0-5.8914-2.8575-9.1369-9.4897-1.5169-3.1044-1.7992-4.0569-1.905-6.103-0.14111-2.1167-0.03528-2.5753 0.74083-3.7747 1.905-2.8928 7.6553-4.198 14.005-3.2103zm-33.337 16.475c0.56444 0.3175 2.1167 1.6228 3.3867 2.8928 2.54 2.5753 5.0447 6.985 5.4328 9.6661 0.49389 3.2456-1.1994 6.4911-4.0217 7.7964-1.4111 0.635-2.2578 0.74083-6.5617 0.74083-6.2089 0-8.1139-0.45861-10.266-2.4342-1.27-1.1289-1.7286-1.8697-2.0814-3.3161-0.59972-2.293-0.17639-4.198 1.6933-7.5494 4.2686-7.62 8.0786-10.019 12.418-7.7964zm64.488 0.91722c1.7992 0.77611 3.7042 3.2103 5.7503 7.4083 2.1167 4.3392 2.6106 6.7028 1.905 8.8547-1.2347 3.81-4.833 5.5033-11.677 5.5033-7.3731 0-10.689-2.1872-10.654-7.0556 0.0705-4.4803 5.1153-12.876 8.7489-14.499 1.658-0.77611 4.3392-0.84667 5.9267-0.21167zm-31.715 18.979c2.5753 0.9525 5.2211 3.3867 6.4558 5.8914 1.905 3.9158 0.98778 9.1369-2.293 12.524-4.0217 4.1628-10.619 4.5861-15.205 0.9525-2.5753-2.0461-4.0569-5.2564-4.0922-8.7842 0-2.2225 0.17639-3.0339 0.98778-4.6919 2.6106-5.327 8.7842-7.9022 14.146-5.8914zm-29.669 19.015c5.6444 2.1167 6.3147 7.0908 1.9756 14.534-2.9633 5.08-5.4681 6.985-9.1369 6.985-3.7042 0-5.2917-1.4111-8.4667-7.5494-1.5875-3.1044-1.9403-4.0922-2.0461-5.9972-0.17639-2.9633 0.35278-4.5156 2.1519-6.0325 2.1519-1.8697 4.9036-2.6106 9.6661-2.6106 3.1397-0.0353 4.3392 0.10584 5.8561 0.67028zm59.866 1.0936c3.0339 0.35278 5.5739 1.27 6.8439 2.3636 0.88194 0.81139 2.3283 3.9158 2.3283 5.08 0 1.5875-1.023 4.1628-2.928 7.3378-3.8806 6.4206-6.985 8.255-11.007 6.3853-4.445-2.0461-9.3486-9.3486-9.3486-13.899 0.0353-3.5278 2.0108-6.1383 5.2917-6.9144 3.2808-0.77611 5.0094-0.84667 8.8194-0.35278zm-31.715 15.946c3.9511 2.0814 8.7489 11.924 7.9375 16.228-0.3175 1.7639-1.9403 3.5278-4.1628 4.5156-1.6933 0.77611-2.3636 0.84667-6.985 0.84667-4.7978 0-5.2211-0.0706-7.1261-0.9525-2.9281-1.3758-3.9864-3.1044-3.9511-6.4206 0.07056-2.8222 0.91722-5.3975 2.8928-8.8194 3.1397-5.4328 7.4436-7.4789 11.395-5.3975z" stroke-width=".035278"/>
 </g>
</svg>
