<svg width="128.72mm" height="128.73mm" version="1.1" viewBox="0 0 128.72 128.73" xmlns="http://www.w3.org/2000/svg" fill="currentColor" stroke="currentColor">
 <g transform="translate(-46.567 -10.054)">
  <path d="m99.624 10.724c-1.5875 0.35278-3.1397 0.74083-3.4219 0.84667-0.38806 0.14111-0.52917 1.1994-0.59972 5.0094l-0.10583 4.7978-2.7869 1.0231c-1.5522 0.56444-3.0339 1.0231-3.2808 1.0231-0.38806 0-2.2578-2.1872-5.4328-6.35l-0.88194-1.1994-3.2456 1.8697c-1.7992 1.0231-3.2456 2.0108-3.2456 2.1872s0.635 2.3636 1.4464 4.7978c0.81139 2.5047 1.3053 4.5156 1.1289 4.6567-0.17639 0.10583-1.4111 0.98778-2.7164 1.9756-1.3406 0.9525-2.54 1.7286-2.7517 1.6581-0.17639-0.03528-1.9403-1.0936-3.9511-2.3636-2.0108-1.27-3.7747-2.2931-3.9511-2.2931-0.28222 0-2.8575 2.7869-4.445 4.7625-0.59972 0.74083-0.52917 0.88194 2.3636 4.5861 1.6228 2.1167 2.8575 3.9864 2.7517 4.1981-0.14111 0.21167-1.0231 1.5522-1.9403 2.9633-1.27 1.8697-1.905 2.54-2.3283 2.3989-3.3867-0.91722-8.6783-1.9756-8.89-1.7286-0.35278 0.42333-2.9281 6.8086-2.7869 6.9144 0.07056 0.07055 1.6581 1.0936 3.4925 2.2931 1.8344 1.1994 3.6336 2.3989 3.9511 2.6458 0.635 0.49389 0.67028 0.24694-0.81139 5.9267l-0.3175 1.2347-9.4544 0.91722-0.21167 1.1289c-0.07055 0.59972-0.28222 2.2931-0.42333 3.7747l-0.21167 2.7164 1.8697 0.52917c1.0583 0.3175 3.2103 0.88194 4.7978 1.3406 3.2808 0.88194 3.2103 0.74083 3.3161 4.9036l0.07056 2.6458-4.4097 2.1167-4.445 2.1167 0.91722 3.6689 0.91722 3.6336 4.2333-0.24694c2.3636-0.14111 4.6214-0.28222 5.08-0.3175 0.67028-0.03528 1.0231 0.42333 2.1872 2.9633l1.3406 2.9986-7.4083 7.0556 2.0461 2.9986c1.0936 1.6581 2.0814 3.0692 2.1519 3.1397 0.03528 0.0705 2.1167-0.67028 4.5861-1.6581 2.5047-1.023 4.6919-1.8344 4.8683-1.8344 0.21167 0 1.27 1.023 2.3989 2.293l2.0461 2.2931-2.3283 4.5156c-1.27 2.5047-2.2931 4.6214-2.2931 4.7272 0 0.24694 5.5386 4.5156 5.8561 4.5156 0.14111 0 1.4111-1.0583 2.8928-2.3636 1.4464-1.3406 3.175-2.8575 3.81-3.3867l1.1994-0.98777 2.7164 1.4817c1.5169 0.81139 2.7869 1.517 2.8222 1.517 0.03528 0.0353-0.24694 2.3989-0.635 5.2917-0.38806 2.8928-0.635 5.2917-0.59972 5.327 0.07056 0.0353 1.6228 0.56444 3.4572 1.1642 3.9511 1.3053 3.2808 1.7286 6.4206-4.057 2.3989-4.445 2.0108-4.198 6.1031-3.4925l2.4694 0.42333 1.0583 5.1858 1.0583 5.1858h7.5494l0.24695-1.3406c0.10583-0.70556 0.56444-3.0339 0.98777-5.1858l0.74084-3.8806 2.4694-0.42334c4.1628-0.70555 3.7042-0.98777 6.5264 4.1275 1.3758 2.54 2.5753 4.5861 2.6811 4.5861 0.21167 0 6.6322-2.1872 6.8086-2.3283 0.0705-0.0705-0.24695-2.5047-0.67028-5.4328-0.42334-2.928-0.74084-5.3622-0.67028-5.4328 0.0705-0.0353 1.3758-0.77612 2.8928-1.5875l2.7517-1.4817 1.8344 1.5875c1.023 0.84667 2.8575 2.5047 4.1275 3.6689l2.2578 2.0814 2.8928-2.3283 2.9281-2.293-2.4694-4.6567c-1.3406-2.54-2.4342-4.7625-2.4342-4.9389 0-0.21166 0.98778-1.4111 2.2225-2.7164l2.1872-2.3989 4.2333 1.905c6.2089 2.787 5.4328 2.8928 7.7258-0.70555l2.0108-3.1044-3.9158-3.7042-3.8806-3.7042 1.3053-3.1044 1.3406-3.1397 4.8683 0.24694c2.6458 0.14111 5.08 0.28222 5.3975 0.3175 0.56445 0.03528 0.67028-0.28222 2.0814-6.35 0.14111-0.67028-0.38806-1.0231-4.7978-2.9986-4.3744-1.9756-4.9389-2.2931-4.7625-2.9633 0.10583-0.38806 0.21167-1.8344 0.21167-3.2103v-2.5047l5.1858-1.4817c2.8575-0.81139 5.2211-1.5169 5.2564-1.5522 0.17639-0.17639-0.635-6.8086-0.84667-7.0203-0.14111-0.10583-2.4694-0.42333-5.1858-0.70556l-4.9389-0.45861-0.42333-1.3406c-0.24695-0.74083-0.67028-2.2931-0.91722-3.4219l-0.49389-2.0814 4.3392-2.8928c2.3989-1.5875 4.3744-2.9633 4.3744-3.0692 0-0.07055-0.52917-1.3053-1.1994-2.6811-0.635-1.4111-1.27-2.8928-1.4111-3.2808-0.21166-0.70556-0.3175-0.67028-5.08 0.45861-2.6458 0.67028-5.0094 1.1994-5.2211 1.1994-0.35278 0-4.0217-5.3269-4.0217-5.8561 0-0.07056 1.3406-1.9403 2.9986-4.1628 1.658-2.1872 2.9986-4.1275 2.9986-4.3039 0-0.17639-1.0936-1.4111-2.4342-2.7517l-2.4342-2.4342-1.3758 0.84667c-0.74083 0.42333-2.5047 1.5875-3.9158 2.5047-1.3758 0.9525-2.787 1.7992-3.0339 1.905-0.45861 0.17639-5.1153-3.175-5.6797-4.0922-0.10583-0.17639 0.42334-2.3283 1.2347-4.7978 0.77611-2.4694 1.4111-4.5861 1.4111-4.7625 0-0.24694-5.9972-3.4925-6.4558-3.4925-0.0705 0-1.4817 1.7639-3.1044 3.8806-3.3514 4.4097-2.787 4.2333-7.4436 2.4342l-2.7164-1.0583-0.10583-5.0094-0.10584-5.0094-3.5278-0.45861c-1.9403-0.24694-3.563-0.35278-3.6336-0.17639-0.0705 0.14111-0.77611 2.1872-1.5875 4.5156l-1.4817 4.2333-3.5631 0.10583-3.5983 0.10583-1.6933-4.6214c-0.9525-2.5047-1.8697-4.5508-2.0814-4.5508-0.17638 0.03528-1.658 0.3175-3.2808 0.67028zm15.981 53.763c2.3636 1.0583 4.2686 2.9986 5.4328 5.4681 0.74084 1.6228 0.91723 2.4694 0.91723 4.7978 0 3.3514-0.77612 5.2917-2.9986 7.7258-3.3514 3.6336-8.5372 4.6214-12.841 2.5047-2.293-1.1642-4.3392-3.2808-5.5739-5.7503-0.67028-1.3406-0.81139-2.2225-0.81139-4.6567 0-2.5753 0.14111-3.2456 0.98778-4.8331 2.9281-5.6444 9.2428-7.8669 14.887-5.2564z" stroke-width=".035278"/>
 </g>
</svg>
